{
  "accessors": [
    {
      "bufferView": 1,
      "componentType": 5126,
      "count": 12,
      "max": [
        1.7320507764816284,
        2,
        1
      ],
      "min": [
        -1.732050895690918,
        -1.0000001192092896,
        -1
      ],
      "type": "VEC3"
    },
    {
      "bufferView": 1,
      "byteOffset": 144,
      "componentType": 5126,
      "count": 12,
      "max": [
        0.7745966911315918,
        0.44721367955207825,
        0.44721367955207825
      ],
      "min": [
        -0.7745966911315918,
        -0.89442723989486694,
        -1
      ],
      "type": "VEC3"
    },
    {
      "bufferView": 0,
      "componentType": 5125,
      "count": 12,
      "max": [
        11
      ],
      "min": [
        0
      ],
      "type": "SCALAR"
    },
    {
      "bufferView": 1,
      "byteOffset": 288,
      "componentType": 5126,
      "count": 12,
      "max": [
        1.7320507764816284,
        2,
        1
      ],
      "min": [
        -1.732050895690918,
        -1.0000001192092896,
        -1
      ],
      "type": "VEC3"
    },
    {
      "bufferView": 1,
      "byteOffset": 432,
      "componentType": 5126,
      "count": 12,
      "max": [
        0.7745966911315918,
        0.44721367955207825,
        0.44721367955207825
      ],
      "min": [
        -0.7745966911315918,
        -0.89442723989486694,
        -1
      ],
      "type": "VEC3"
    },
    {
      "bufferView": 0,
      "byteOffset": 48,
      "componentType": 5125,
      "count": 12,
      "max": [
        11
      ],
      "min": [
        0
      ],
      "type": "SCALAR"
    }
  ],
  "asset": {
    "extras": {
      "author": "paula1221965 (https://sketchfab.com/paula1221965)",
      "license": "CC-BY-4.0 (http://creativecommons.org/licenses/by/4.0/)",
      "source": "https://sketchfab.com/models/85d48030e6344e3aa8e6f419bf599f29",
      "title": "tetrahedron"
    },
    "generator": "Sketchfab-3.18.6",
    "version": "2.0"
  },
  "bufferViews": [
    {
      "buffer": 0,
      "byteLength": 96,
      "byteOffset": 0,
      "name": "floatBufferViews",
      "target": 34963
    },
    {
      "buffer": 0,
      "byteLength": 576,
      "byteOffset": 96,
      "byteStride": 12,
      "name": "floatBufferViews",
      "target": 34962
    }
  ],
  "buffers": [
    {
      "byteLength": 672,
      "uri": "scene.bin"
    }
  ],
  "materials": [
    {
      "doubleSided": true,
      "emissiveFactor": [
        0,
        0,
        0
      ],
      "name": "RootNode",
      "pbrMetallicRoughness": {
        "baseColorFactor": [
          1,
          1,
          1,
          1
        ],
        "metallicFactor": 0,
        "roughnessFactor": 0.59999999999999998
      }
    }
  ],
  "meshes": [
    {
      "name": "Cone.001__0",
      "primitives": [
        {
          "attributes": {
            "NORMAL": 1,
            "POSITION": 0
          },
          "indices": 2,
          "material": 0,
          "mode": 4
        }
      ]
    },
    {
      "name": "Cone__0",
      "primitives": [
        {
          "attributes": {
            "NORMAL": 4,
            "POSITION": 3
          },
          "indices": 5,
          "material": 0,
          "mode": 4
        }
      ]
    }
  ],
  "nodes": [
    {
      "children": [
        1
      ],
      "name": "RootNode (gltf orientation matrix)",
      "rotation": [
        -0.70710678118654746,
        -0,
        -0,
        0.70710678118654757
      ]
    },
    {
      "children": [
        2
      ],
      "name": "RootNode (model correction matrix)"
    },
    {
      "children": [
        3
      ],
      "matrix": [
        1,
        0,
        0,
        0,
        0,
        0,
        1,
        0,
        0,
        -1,
        0,
        0,
        0,
        0,
        0,
        1
      ],
      "name": "463105eec6e1429390702655f9fb85ce.fbx.fbx"
    },
    {
      "children": [
        4,
        6,
        8,
        11
      ],
      "name": "RootNode"
    },
    {
      "children": [
        5
      ],
      "matrix": [
        99.999999999999233,
        8.7422790784330149e-06,
        -8.7422790784330505e-06,
        0,
        8.7422805027309487e-06,
        -1.6292067184231485e-05,
        99.999999999998295,
        0,
        8.742277654134883e-06,
        -99.999999999998295,
        -1.6292067939183141e-05,
        0,
        0,
        0,
        0,
        1
      ],
      "name": "Cone.001"
    },
    {
      "mesh": 0,
      "name": "Cone.001__0"
    },
    {
      "children": [
        7
      ],
      "matrix": [
        100,
        0,
        0,
        0,
        0,
        -1.6292067939183141e-05,
        -99.999999999998678,
        0,
        0,
        99.999999999998678,
        -1.6292067939183141e-05,
        0,
        0,
        100,
        0,
        1
      ],
      "name": "Cone"
    },
    {
      "mesh": 1,
      "name": "Cone__0"
    },
    {
      "children": [
        9
      ],
      "matrix": [
        -29.08647719990347,
        -5.5189064575668629,
        -95.517119101714371,
        0,
        56.639309131094492,
        79.467234285632031,
        -21.839123978419661,
        0,
        77.110087759933748,
        -60.452463565620441,
        -19.988346967737169,
        0,
        407.62454223632812,
        590.38623046875,
        -100.54539489746094,
        1
      ],
      "name": "Lamp"
    },
    {
      "children": [
        10
      ],
      "matrix": [
        1,
        0,
        0,
        0,
        0,
        2.2204460492503131e-16,
        1,
        0,
        0,
        -1,
        2.2204460492503131e-16,
        0,
        0,
        0,
        0,
        1
      ],
      "name": ""
    },
    {
      "name": ""
    },
    {
      "children": [
        12
      ],
      "matrix": [
        -65.486158987964302,
        -44.524533257868043,
        -61.066594134371584,
        0,
        -31.737005689635694,
        89.534328298476524,
        -31.246864258620555,
        0,
        68.588085341836845,
        -1.0816627522614031,
        -72.763346231679549,
        0,
        748.1131591796875,
        534.36651611328125,
        650.76397705078125,
        1
      ],
      "name": "Camera"
    },
    {
      "name": ""
    }
  ],
  "scene": 0,
  "scenes": [
    {
      "name": "OSG_Scene",
      "nodes": [
        0
      ]
    }
  ]
}

